<?xml version="1.0" encoding="UTF-8"?>
<svg id="_レイヤー_2" data-name="レイヤー 2" xmlns="http://www.w3.org/2000/svg" viewBox="0 0 189.47 220">
  <defs>
    <style>
      .cls-1 {
        fill: #2e3b6c;
      }

      .cls-2 {
        fill: #b7bed8;
      }

      .cls-3 {
        fill: #1c224a;
      }

      .cls-4 {
        fill: #d15d30;
      }

      .cls-5 {
        fill: #ce5534;
      }

      .cls-6 {
        fill: #a8b0ce;
      }

      .cls-7 {
        fill: #ab3b3c;
      }

      .cls-8 {
        fill: #fec25c;
      }

      .cls-9 {
        fill: #fdb758;
      }

      .cls-10 {
        fill: #bf4838;
      }

      .cls-11 {
        fill: #324279;
      }

      .cls-12 {
        fill: #fff;
      }

      .cls-13 {
        fill: #c64f36;
      }

      .cls-14 {
        fill: #c7cce0;
      }

      .cls-15 {
        fill: #abb2ce;
      }

      .cls-16 {
        fill: #aab3d0;
      }

      .cls-17 {
        fill: #435893;
      }

      .cls-18 {
        fill: #abb3d0;
      }

      .cls-19 {
        fill: #fec765;
      }

      .cls-20 {
        fill: #b0403b;
      }

      .cls-21 {
        fill: #d96f2c;
      }

      .cls-22 {
        fill: #fecb71;
      }

      .cls-23 {
        fill: #fce0ac;
      }

      .cls-24 {
        fill: #a9b1cd;
      }

      .cls-25 {
        fill: #f59c29;
      }

      .cls-26 {
        fill: #d05534;
      }

      .cls-27 {
        fill: #263264;
      }

      .cls-28 {
        fill: #c04a39;
      }

      .cls-29 {
        fill: #ed843a;
      }

      .cls-30 {
        fill: #bdc3db;
      }

      .cls-31 {
        fill: #fdc249;
      }

      .cls-32 {
        fill: #fefeff;
      }

      .cls-33 {
        fill: #d25835;
      }

      .cls-34 {
        fill: #5d3347;
      }

      .cls-35 {
        fill: #fefdfe;
      }

      .cls-36 {
        fill: #d55e37;
      }

      .cls-37 {
        fill: #fefefe;
      }

      .cls-38 {
        fill: #e9792a;
      }

      .cls-39 {
        fill: #da6134;
      }
    </style>
  </defs>
  <g id="_レイヤー_1-2" data-name="レイヤー 1">
    <g id="_生成オブジェクト" data-name="生成オブジェクト">
      <path class="cls-3" d="M22.46,159.23c-4.72-6.11-9.27-12.84-11.29-19.96l-1.36,4.38c-3.86-11.15-5.73-22.12-2.61-34.12l-7.2,2.42c.85-5.68,2.05-10.62,3.55-15.95,3.34-11.91,7.55-23.35,12.5-34.42C6.26,52.72-.71,39.73.84,26.61,2.5,16.31,9.08,7.53,18.65,3.31c6.77-2.98,13.99-2.52,20.6.64,4.53,2.16,8.42,4.92,12.67,7.57,8.48-3.58,17.35-6.23,26.7-7.01,4.7-.39,8.97.19,13.18,1.95,5.74-3.08,11.74-4.45,18.01-4.46-1.46,1.13-2.95,1.36-4.13,2.84,11.24-1.69,21.79,1.3,32.12,5.35,11.9-7.9,22.71-14.57,36.12-6.6,12.26,7.83,17.52,22.79,12.9,36.65-2.76,8.29-7.58,15.34-14.11,21.18,5.04,11.68,9.51,23.02,13.18,34.92,1.56,5.07,2.86,9.82,3.6,15.09l-5.54-1.9c2.73,11.55,1.89,22.41-3.76,32.6-3.39,6.12-7.04,11.75-11.16,17.42l-9.02,12.42-1.16-8.42c-7.45,14.19-18.74,26.65-30.25,37.98l.15-6.85c-3.21,4.33-6.99,7.76-11.25,11.09-6.69,5.23-13.81,9.72-20.86,14.23l-30.35-21.87c-7.09-3.8-13.44-9.15-19.3-14.88-5.81-5.69-10.28-12.09-13.6-19.24l-.8,8.32-10.12-13.1Z"/>
      <g>
        <path class="cls-25" d="M173.37,10.4c5.77,4.66,8.94,12.38,8.93,20.07-.6-.02-.54-.57-.73-1.02l-2.51-5.89c-3.19-6.53-10.15-10.51-17.32-9.2-1.35.25-2.56.56-3.29,1.47-2.26.49-4.24,1.88-6.19,3.52-3.74,3.16-6.98,6.66-10.29,10.41,5.5,2.88,10.5,5.91,14.56,10.05l-1.77.39c-2.42-.32-4.2-2-6.28-2.71-2.29-.78-4.16-1.78-6.12-3.1l-1.66-.37,2.12,3.12c6.15,9.06,10.2,19.22,10.62,30.25.02.48-.17.71-.46.84-6.51-9.42-18.85-14.44-29.59-9.38-3.83,1.8-7.3,4.35-9.81,7.68-.42-1.5.63-2.53,1.05-4.07-1.57,1.21-2.58,2.56-3.56,3.9-.2-.14-.54-.32-.72,0l-4.64,3.36-9.99,7.58c-3.44-4.11-6.42-8.24-9.51-12.54l-7.02-9.76c-7.18-9.98-14.66-18.45-15.5-31.17-.08-1.25-.33-1.5-1.09-2.11-2.05-1.64-3.7-3.9-6.03-5.53,7.08-3.09,14.54-3.5,22.09-2.51-.12-.49-.64-.67-.8-1.26,5.53.08,11.09,2.08,16.03,4.85.43.24.66.6,1.15.42.27.23.6.26.67-.2,1.3-1.45,2.72-2.95,4.15-3.99.17-.12.71-.2.91.05,2.26-.93,4.8-1.3,7.38-1.84,1.4-.29,2.59-1.29,4.09-.76l-3.22,2.13c-.43.28-1.14.5-.97.99l-2.94,2.03c5.05-.82,10.12-1.95,15.4-1.4l11.52,1.21-3.49,5.51c-.15.24.01.48,0,.59-.07.43.25.58.68.44,4.48-.52,8.45-2.22,12.23-4.57l10.11-6.29c3.52-2.19,7.31-3.73,11.53-3.74,3.74-.2,6.83,1.49,10.29,2.52Z"/>
        <path class="cls-12" d="M107.87,95.94l4.51,3.73c2.98,3.08,5.44,6.72,7.68,10.36-.13-.26-.79,0-.61.33,7.05,13.3,14.81,36.84-.32,45.79-7.65,4.53-19.54,2.88-21.36-2.46-.17-.48-.29-.73-.69-.7,0-.13-.2-.59.04-.72,6.01-3.09,14.03-7.91,16.52-13.93,1.42-3.42.38-7.03-2.82-8.9-2.64-1.54-5.68-2.03-8.81-1.56-4.37.65-8.53.68-12.89-.02-3.26-.52-6.52-.12-9.21,1.5-2.94,1.77-4.16,4.91-3.03,8.25,2.02,5.98,10.49,11.64,16.37,14.37.41.19.73.22.77.65-.31-.06-.6-.07-.86.02-.11,1.83-1.27,3.37-3,4.23-7.1,3.51-15.83,2.29-21.96-2.93-5.51-4.7-7.72-11.68-6.94-18.8.08-.71-.1-1.24-.63-1.52,3.16-12.27,8.8-23.87,16.72-33.61l4.13-3.53c7.59-6.5,18.96-6.68,26.38-.54Z"/>
        <path class="cls-38" d="M53.99,19.21c2.9.58,5.58,2.4,8.62,2.52.76.61,1,.85,1.09,2.11.84,12.72,8.32,21.19,15.5,31.17l7.02,9.76c3.09,4.29,6.06,8.43,9.51,12.54l9.99-7.58,4.64-3.36c.18-.31.52-.13.72,0-2.73,3.74-4.77,8.08-4.69,12.77-.24.09-.7.11-.74.09.42-1,.29-1.54-.09-2.11-1.43,2.89-2.61,5.66-2.86,8.83,1.13,3.95,5.62,9.24,5.6,9.56,0,.13-.24.28-.42.43-7.42-6.14-18.79-5.96-26.38.54-.12-.25-.28-.72-.39-1.16,2.43-3.01,6.85-7.82,6.25-10.78-.7-3.46-2.12-6.53-3.66-9.47-.24.37-.15.69-.15.91,0,.14-.19.3-.4.21-.63-3.85-2.39-7.52-5.2-10.46l-2.79-2.91,1.75,3.97c.18.4.14.65-.17.97-4.49-6.26-11.43-10.54-19.37-10.75-7.85-.21-15.19,3.36-20.04,9.22.06-5.33,3.48-10.12,6.62-14.45-2.12,1.34-3.24,3.39-4.64,5.32l-5.31,7.3c.04-8.88,4.49-16.13,8.78-23.44-1.12,1.07-2.58,1.4-3.73,2.28-1.08.82-1.97,1.71-3.6,1.67l-1.13,1.09c-.2-.32-.25-.6-.32-.92.43-.23.66-.55,1.07-.99l3.5-3.83c1.92-2.09,3.8-4.08,6.1-5.96-.45-.58-.97-.4-1.45-.48.42-.11.75-.76,1.14-.77.6-.01.55-.49.94-.67l3.58-1.7,4.11-4.98c1.12-1.36,2.49-2.48,3.26-3.93l-6.53-1.53c-1.36-.32-2.75.35-3.82,0l-9.81-3.28-1.2-.11c-.24-.02-.37.51-.26.91-6.06-3.64-13.74-1.86-17.57,4.18-3.34,5.28-3.15,11.66-1.71,17.69-.85-.15-1.1-1.2-1.59-1.8-1.37-1.7-2.34-3.39-3.07-5.25-.24-.62-.31-1.23-.83-1.88-1.04-1.3-.56-3.47-.75-5.07l-1.56-.04c.85-3.65,2.46-7.14,4.82-10.1l.45.05c1.18-.91,1.99-2.62,3.38-2.92s2.55-1.04,3.87-1.61c14.37-6.22,24.99,7.54,29.64,7.9l4.28.33Z"/>
        <path class="cls-12" d="M152.99,68.25c2.58,3.73,4.6,7.9,6,12.36,1.48,4.69,4.02,8.54,7.9,11.64.62.5,1.26,1.47,1.08,2.17l-4.65-3.16c7.41,9.85,14.67,18.7,15.58,31.51-3.43-4.6-6.92-8.52-11.18-11.88.37,1.38.88,2.28,1.38,3.14.34,2.84.29,5.57.36,8.57.03,1.24.76,2.45-.28,3.88.66.38,1.06,1.36.51,1.63-1.6-3.07-3.29-6.13-6.18-8.33-.03.8.07,1.51.24,2.14-.57-.02-.42.66-.65.98l-9.91,13.42c1.37-6.26,1.51-12.17-.58-18.02-1.46,8.51-4.53,16.49-9.2,23.63-1.29-4.15-2.72-7.76-5.39-10.68-.38-.41-1.07-.45-1.46-.74l-2.13-1.65c12.41-10.47,22.96-23.95,21.06-41.14-3.85-3.54-6.76-7.34-9.68-11.4-1.79-2.5-3.64-4.88-6.1-6.77-3.47-2.66-7.81-2.91-11.57-.74-2.43,1.4-4.23,3.37-6,5.53l-7.55,9.21c-4.57,5.58-6.85-9.31-1.03-17.02,2.51-3.33,5.97-5.88,9.81-7.68,10.75-5.05,23.08-.04,29.59,9.38Z"/>
        <path class="cls-12" d="M76.74,67.74c2.91,4.05,4.54,13.06.82,17.42-1.1-.31-1.95-.89-2.67-1.76l-6.79-8.19c-1.88-2.27-3.7-4.41-6.2-5.99-7.03-4.45-13.47.06-17.7,6.72-2.87,4.52-6.85,8.37-10.06,12.43-1.27,6.04.6,12.37,2.91,17.83,3.37,7.97,8.93,14.27,15.19,19.87.04.86-.59,1.49-1,2.22-2.7,4.83-4.15,9.96-4.75,15.66-3.64-5.08-6.13-10.67-8.2-16.58-1.46-4.19-2.78-8.21-5.13-12.17-2.88,1.52-5.1,4.1-6,7.09-.72-.11-.69-.92-1.49-1.08-1.16-3.23-1.71-6.91-1.94-10.68-.16-2.58,1.5-4.91,2.22-7.56-4.9,4.46-8.92,9.6-11.74,15.51-.17.35-.06.61.37.75l-2.49,3.71c.34-12.54,6.51-20.95,13.81-30.05-.93,0-1.28.36-1.64.62l.53-1.11c-.15-.59.23-1.35.14-1.95,2.28-2.55,3.74-5.4,4.79-8.79,1.73-5.57,3.96-11.04,7.6-15.44,4.85-5.85,12.19-9.43,20.04-9.22,7.94.21,14.88,4.49,19.37,10.75Z"/>
        <path class="cls-4" d="M156.53,39.81l3.86,3.94-9.1-1.99c6.19,5.54,11.11,12.28,14.69,20.03,3.46,7.48,6.29,14.93,9.09,22.64l2.68,7.37-9.57-6.98c3.35,5.26,6.66,10.09,9.25,16.05l-9.45-6.44c.18-.71-.46-1.68-1.08-2.17-3.88-3.1-6.42-6.95-7.9-11.64-1.41-4.46-3.42-8.63-6-12.36.28-.13.47-.36.46-.84-.42-11.03-4.47-21.2-10.62-30.25l-2.12-3.12,1.66.37c1.96,1.32,3.84,2.32,6.12,3.1,2.09.71,3.86,2.39,6.28,2.71l1.77-.39Z"/>
        <path class="cls-24" d="M52.24,126.07l4.93,4.08c-4.09,12.88-2.55,22.46,6.22,32.8-11.88-6.8-25.32-14.4-34.96-24.17-2.91-2.95-2.93-5.65-3.55-9.49l2.29-7c.91-2.99,3.12-5.58,6-7.09,2.35,3.96,3.67,7.99,5.13,12.17,2.07,5.91,4.56,11.5,8.2,16.58.6-5.7,2.04-10.83,4.75-15.66.41-.72,1.04-1.36,1-2.22Z"/>
        <path class="cls-28" d="M37.32,66.21c-3.64,4.4-5.88,9.88-7.6,15.44-1.05,3.39-2.51,6.24-4.79,8.79l-3.47,3.87-2.55,2.42c-.14.14-.12.39.17.53l-6.79,4.62c2.62-6.37,5.85-11.7,9.24-17.31l-7.28,5.38-3.11,2.57c3.15-9.5,6.36-18.64,10.38-27.81,2.47-5.64,5.72-10.49,9.46-15.28.3-.38,1.14-.63.86-1.31l2.48-2.13,1.13-1.09c1.63.04,2.52-.85,3.6-1.67,1.15-.88,2.62-1.2,3.73-2.28-4.28,7.31-8.74,14.55-8.78,23.44l5.31-7.3c1.41-1.94,2.52-3.98,4.64-5.32-3.14,4.33-6.56,9.12-6.62,14.45Z"/>
        <path class="cls-15" d="M163.75,121.93c.82,2.92,1.07,6,.91,9.14-.14,2.94-1.32,5.36-3.34,7.59-3.84,4.22-8,7.85-12.82,10.89l-21.05,13.27c8.69-10.53,10.29-20.13,6.08-33.05.14-.38.61-.65.91-.9l2.13,1.65c.38.29,1.08.32,1.46.74,2.67,2.92,4.1,6.53,5.39,10.68,4.67-7.14,7.74-15.11,9.2-23.63,2.09,5.85,1.95,11.77.58,18.02l9.91-13.42c.23-.31.07-.99.65-.98Z"/>
        <path class="cls-27" d="M93.98,195.47c1.89,2.06,1.91,10.23,2.02,14.44l-24.01-17.14c-4.32-3.08-8.32-6.14-11.91-9.52l4.99-7.61c.42-.64.4-.96,1.2-.86.54.07.79.38,1.32.74l15.67,10.82c3.93,2.72,7.49,5.62,10.72,9.13Z"/>
        <path class="cls-27" d="M122.2,105.46l-2.02-5.59c.75-.41,1.28-.07,1.7.14,5.49,2.79,12.27.02,14.85-5.96,1.23-2.86,2.04-5.76,2.47-8.93.14-1.03,1-1.93,1.89-1.77,0,.59.46,1.04.91,1.04.83,1.55,2.9,1.97,4.75,1.17,1.43,7.24-.33,14.72-4.63,20.51s-12.23,7.16-17.93,2.69c-.68-1.02-1.64-2.35-1.99-3.3Z"/>
        <path class="cls-2" d="M93.63,161.45c.41.88.17,1.73.23,2.64l.09,1.34,12.24,2.2,4.91.02c2.55,0,4.86-.44,6.45-2.35-.47-.15-.48-.43-.4-.49.65-.08,1.19-.42,1.99-.3-13.12,13.71-34,13.66-47.16-.08l6.69.59c5.28-.22,10.28-1.58,14.96-3.57Z"/>
        <path class="cls-18" d="M120.06,110.03c4.61,7.49,8.25,15.61,10.3,24.35,1.17,4.97,1.32,9.85-.2,14.6-1.87,5.81-6.13,10.27-12.11,12.02-1.36.4-2.82.18-4.34.79-2.7,1.08-13.18-1.48-16.72-4.53l.1-4.27c.4-.04.52.21.69.7,1.82,5.35,13.71,6.99,21.36,2.46,15.13-8.95,7.36-32.49.32-45.79-.18-.34.47-.59.61-.33Z"/>
        <path class="cls-13" d="M182.3,30.47c-.31,9.99-5.18,18.39-12.53,25.39l-.93-1.58c.53.02,1.2.45,1.55.07,1.01-1.07,1.17-2.32,1.64-3.37,1.79-3.92,3.68-7.68,4.26-12.17-.68-.18-1.41.07-2.09-.01,1.35-5.03,1.28-10.51-.86-15.35-2.65-5.98-8.7-9.1-14.88-7.62.73-.92,1.94-1.23,3.29-1.47,7.18-1.31,14.14,2.67,17.32,9.2l2.51,5.89c.19.44.13,1,.73,1.02Z"/>
        <path class="cls-1" d="M20.76,129.63c.52-1.61,1.69-3.03,3.18-3.91.75,1.3.75,2.45.94,3.57.62,3.84.64,6.54,3.55,9.49-.2.19-.48.31-.55.2-.07-.12-.27-.57-.77-.45l.6,5.34c.23,2.06-.76,4.02-2.25,5.16-.61-.2-1.01-.44-1.39-.87-5.35-6.17-8.81-15.79-5.07-23.7,1.28,1.82.29,3.36,1.17,4.77-.52.62.39,1.04.59.4Z"/>
        <path class="cls-16" d="M94.02,152.63c.12,1.51.17,3.25-.32,4.77-3.04,2.28-6.54,3.18-10.02,4.06-2.94.74-5.74.57-8.62.01-8.38-1.62-14.52-7.87-15.39-16.5-.38-3.78-.01-7.52.97-11.34.53.28.71.81.63,1.52-.77,7.12,1.43,14.1,6.94,18.8,6.13,5.23,14.86,6.44,21.96,2.93,1.73-.86,2.89-2.4,3-4.23.26-.09.54-.08.86-.02Z"/>
        <path class="cls-17" d="M111.93,133.91c-3.02-.35-6.12-.32-9.2.55-10.93,3.11-15.29-2.44-23.7-.66.54-1.91,1.92-3.08,3.75-3.66,4.35-1.38,9.62,1.76,18.19.18,2.1-.39,4.18-.5,6.27-.15,1.9.61,3.87,1.16,4.68,3.75Z"/>
        <path class="cls-22" d="M173.37,10.4c-3.46-1.03-6.55-2.72-10.29-2.52-4.22,0-8,1.55-11.53,3.74l-10.11,6.29c-3.77,2.35-7.74,4.05-12.23,4.57-.42.14-.75-.02-.68-.44l5.91-3.45,8.72-5.59c10.59-6.79,19.56-11.75,30.19-2.6Z"/>
        <path class="cls-33" d="M44.34,33.04c.1-.08.1-.79-.11-.66-.17.1-.36.33-.6-.21l3.85-2.08c-3.65-4.46-8.44-9.68-12.87-12.34-.11-.4.03-.93.26-.91l1.2.11,9.81,3.28c1.06.36,2.46-.31,3.82,0l6.53,1.53c-.76,1.45-2.14,2.58-3.26,3.93l-4.11,4.98-3.58,1.7c-.39.19-.34.66-.94.67Z"/>
        <path class="cls-7" d="M15.34,39.62c1.44,4.03,3.52,8.11,6.77,11.5-1.07,1.52-1.88,2.93-2.73,4.7-3.42-3.14-6.08-6.52-8.07-10.32.21.04.35-.1.36-.22.04-.39-3.69-5.68-.99-12.7.73,1.86,1.7,3.55,3.07,5.25.49.6.74,1.65,1.59,1.8Z"/>
        <path class="cls-30" d="M27.16,122.29l-2.29,7c-.18-1.12-.18-2.27-.94-3.57-1.49.88-2.65,2.3-3.18,3.91-1.71-6.11-.19-12.24,2.18-19-3.44,2.57-5.85,5.64-8.35,8.6-.43-.14-.54-.39-.37-.75,2.81-5.91,6.83-11.05,11.74-15.51-.73,2.65-2.38,4.98-2.22,7.56.23,3.77.78,7.46,1.94,10.68.81.15.78.97,1.49,1.08Z"/>
        <path class="cls-9" d="M53.99,19.21l-4.28-.33c-4.66-.35-15.27-14.12-29.64-7.9-1.32.57-2.46,1.3-3.87,1.61s-2.2,2-3.38,2.92l-.45-.05c5.92-7.44,15.01-10.62,24.39-6.51,4.1,1.79,7.56,4.44,11.37,6.67l5.85,3.59Z"/>
        <path class="cls-27" d="M59.45,105.53c.26-.42.05-1.18-.41-.8-4.91-.54-8.94-4.08-11.22-8.27l1.18-.85,3.27-1.48c3.23,5.79,7.55,7.32,14.34,7.2-1.98,2.23-4.47,3.71-7.16,4.19Z"/>
        <path class="cls-26" d="M81.49,96.48l-4.13,3.53,5.03-14.77c1.08-3.04,1.24-6.07.76-9.06.21.09.4-.07.4-.21,0-.22-.09-.54.15-.91,1.53,2.93,2.96,6,3.66,9.47.6,2.97-3.83,7.77-6.25,10.78.12.44.27.91.39,1.16Z"/>
        <path class="cls-6" d="M117.14,164.81c-.08.06-.07.35.4.49-1.59,1.91-3.9,2.36-6.45,2.35l-4.91-.02-12.24-2.2-.09-1.34c-.06-.91.18-1.76-.23-2.64.98-.42,1.96-.67,3.19-.18,6.66,2.65,13.17,4.37,20.32,3.54Z"/>
        <path class="cls-5" d="M106.39,79.14c0,3.13.82,6.15,1.99,9.23l4,11.3-4.51-3.73c.18-.15.42-.3.42-.43.02-.32-4.46-5.61-5.6-9.56.25-3.16,1.43-5.94,2.86-8.83.38.56.51,1.11.09,2.11.04.01.5,0,.74-.09Z"/>
        <path class="cls-11" d="M47.83,96.46c2.28,4.19,6.3,7.72,11.22,8.27.46-.38.67.38.41.8-4.71.84-9.48-.96-12.59-4.56-3.88-4.49-4.94-10.8-1.72-15.91.32,4.28.85,8.05,2.68,11.4Z"/>
        <path class="cls-8" d="M132.03,15.93l-11.52-1.21c-5.28-.55-10.35.58-15.4,1.4l2.94-2.03c7.99-2.4,16.78-2,24.83.85-.26.66-.6.84-.85,1Z"/>
        <path class="cls-20" d="M168.84,54.27l-1.72-2.89c3.46-3.7,5.84-7.94,7.08-12.59.68.08,1.41-.16,2.09.01-.59,4.48-2.47,8.24-4.26,12.17-.48,1.05-.63,2.3-1.64,3.37-.35.38-1.02-.05-1.55-.07Z"/>
        <path class="cls-19" d="M88.67,11.97c1.11,1.29,2.84,1.75,4.8,3.73.49.5.89,1.22,1.57,1.49-.01.15.06.35,0,.52-.49.18-.72-.18-1.15-.42-4.93-2.77-10.5-4.77-16.03-4.85-1.68-.03-3.1-1.56-5.19-2.06,5.43-.82,10.86-.18,16,1.59Z"/>
        <path class="cls-10" d="M44.34,33.04c-.39,0-.72.65-1.14.77-5.41,3.27-10.16,7.76-14.18,12.64-.99,1.42-2.26,2.29-1.98,3.92l2.72-1.92c.28.07.47.4.42.52l-7.04,4.98c4.12-9.67,11.65-16.99,20.5-21.78.24.55.43.32.6.21.21-.13.21.58.11.66Z"/>
        <path class="cls-14" d="M169.69,128.13c.55-.27.16-1.26-.51-1.63,1.04-1.43.3-2.64.28-3.88-.07-3.01-.02-5.73-.36-8.57,3.55,6.06,4.78,13.39,2.55,20.21l-1.96-6.13Z"/>
        <path class="cls-39" d="M10.68,32.57c-2.71,7.02,1.03,12.32.99,12.7-.01.12-.15.26-.36.22-3.15-6-5.41-12.82-3.76-19.92l1.56.04c.18,1.6-.29,3.77.75,5.07.52.65.59,1.26.83,1.88Z"/>
        <path class="cls-35" d="M66.36,97.97c-2.63.48-5.7.35-8.13-1.42-3.8-2.75-5.26-8.13-3.43-12.37.99-2.28,3.2-3.33,5.39-2.94-2.6,1.34-4.03,3.65-4.31,6.45s.62,5.56,2.52,7.47,4.66,2.71,7.96,2.8Z"/>
        <path class="cls-35" d="M125.78,98.21l-3.34-.05c-.14-.06-.19-.19-.19-.26l3.73-.19c3.81-.61,6.73-3.32,7.53-6.77.89-3.81-.35-7.62-3.63-9.73,2.48-.29,4.36,1.26,5.17,3.45.86,2.34.72,4.84-.18,7.25-1.42,3.83-4.99,6.35-9.1,6.3Z"/>
        <path class="cls-37" d="M125.47,88.52c-1.68.58-3.26-.91-3.31-2.43-.06-1.77,1.35-3.33,3.23-2.99,1.35.25,2.16,1.48,2.11,2.66s-.77,2.32-2.04,2.76Z"/>
        <path class="cls-32" d="M65.38,87.84c-1.47,1.03-3.13.09-3.62-1.24s.25-3.2,1.87-3.4c1.23-.15,1.99.76,2.4,1.57.5.97.49,2.28-.65,3.07Z"/>
        <path class="cls-34" d="M99.86,13.52c-1.43,1.04-2.86,2.54-4.15,3.99-.08.46-.41.42-.67.2.06-.18-.02-.37,0-.52.06-.64-1.98-2.96-3.38-4.18.54.19.98.32,1.61.8,1.11.85,2.76-.26,3.83-.68l1.57-.62c.4-.16.92-.06,1.1.16.19.23.06.61.09.86Z"/>
        <path class="cls-31" d="M112.25,10.97c-1.5-.53-2.69.47-4.09.76-2.58.54-5.12.91-7.38,1.84-.12-.31-.12-.59-.06-.71.05-.11.5-.12.63-.16,2.21-1.53,4.62-2.44,7.29-2.55l6.11-.26c-.75.52-1.79,1.03-2.49,1.08Z"/>
        <path class="cls-36" d="M34.31,45.98l-2.48,2.13c-.42.36-1.14.61-1.65.85.04-.12-.14-.45-.42-.52l-2.72,1.92c-.28-1.63.99-2.5,1.98-3.92,1.08.81,1.87.3,2.86-.24l2.11-1.14c.08.31.13.59.32.92Z"/>
        <path class="cls-27" d="M170.53,142.97c1.04-1.15.91-2.17.66-3.06,1.06-1.09.55-2.45.62-3.82.81.17,1.33.17,2.15-.19-.53,2.53-2.59,7.3-2.85,7.46-.09.06-.45.21-.59-.4Z"/>
        <path class="cls-23" d="M24.26,93.5l-5.19,3.76c-.29-.14-.31-.4-.17-.53l2.55-2.42,3.47-3.87c.09.6-.29,1.36-.14,1.95l-.53,1.11Z"/>
        <path class="cls-21" d="M91.66,13c1.4,1.23,3.44,3.55,3.38,4.18-.68-.27-1.08-.99-1.57-1.49-1.95-1.98-3.69-2.43-4.8-3.73l2.99,1.03Z"/>
        <path class="cls-29" d="M43.2,33.81c.48.08,1-.1,1.45.48-2.3,1.88-4.18,3.86-6.1,5.96l-3.5,3.83c-.41.45-.64.76-1.07.99l-2.11,1.14c-.99.54-1.78,1.06-2.86.24,4.02-4.89,8.77-9.38,14.18-12.64Z"/>
      </g>
    </g>
  </g>
</svg>